<svg id="Livello_1" data-name="Livello 1" xmlns="http://www.w3.org/2000/svg" viewBox="20 20 113 113">
  <defs>
    <style>
      .cls-1 {
        fill: rgba(95,6,48);
      }
    </style>
  </defs>
  <title>microavatag</title>
  <g>
    <path class="cls-1" d="M28.1,69.64l-1.79-.34L25.56,64l1,.19.65,4.87.15,0,2.41-4.28,1,.19Z"/>
    <path class="cls-1" d="M33.38,58.89l-.05.14a2,2,0,0,1,.56,1,2.19,2.19,0,0,1-.1,1.11,3,3,0,0,1-.56,1,2.53,2.53,0,0,1-.86.62,2.64,2.64,0,0,1-1.1.23,3.55,3.55,0,0,1-1.3-.25l-.18-.06A3.67,3.67,0,0,1,28.65,62a2.68,2.68,0,0,1-.7-.89,2.6,2.6,0,0,1-.25-1,2.83,2.83,0,0,1,.18-1.07,2.33,2.33,0,0,1,.63-.95,1.86,1.86,0,0,1,1-.45l.05-.14-.88-.32.33-.88,4.44,1.63a.31.31,0,0,0,.45-.18l.1-.28.81.29-.22.6a.87.87,0,0,1-.48.53.9.9,0,0,1-.72,0ZM33,60.79a2.12,2.12,0,0,0,.12-.78,1.77,1.77,0,0,0-.21-.72,2.08,2.08,0,0,0-.51-.61,2.74,2.74,0,0,0-.79-.44l-.14-.05a2.54,2.54,0,0,0-.88-.17,2.21,2.21,0,0,0-.78.14,2.09,2.09,0,0,0-.64.42,1.88,1.88,0,0,0-.41.66,1.93,1.93,0,0,0-.12.78,1.86,1.86,0,0,0,.21.72,1.9,1.9,0,0,0,.5.61,2.68,2.68,0,0,0,.78.44l.18.06a2.23,2.23,0,0,0,1.68,0A1.8,1.8,0,0,0,33,60.79Z"/>
    <path class="cls-1" d="M37.2,53.48l-.9,1.61L30.09,54l.54-1,5.71,1.1.07-.12-3.93-4.29.54-1Z"/>
    <path class="cls-1" d="M41.05,46.3l-.09.11a2,2,0,0,1,.2,1.18,2.23,2.23,0,0,1-.44,1,2.86,2.86,0,0,1-.83.73,2.61,2.61,0,0,1-1,.33,2.91,2.91,0,0,1-1.12-.13,3.64,3.64,0,0,1-1.16-.64l-.15-.12a3.59,3.59,0,0,1-.88-1,2.77,2.77,0,0,1-.38-1.06,2.53,2.53,0,0,1,.08-1.06,2.89,2.89,0,0,1,.5-1,2.35,2.35,0,0,1,.91-.7,1.89,1.89,0,0,1,1.14-.1l.09-.11-.74-.58.58-.73,3.71,2.93q.28.23.48,0l.19-.24.68.54-.4.5a.91.91,0,0,1-.62.36,1,1,0,0,1-.69-.22Zm-1,1.68a1.74,1.74,0,0,0,.36-.7,1.59,1.59,0,0,0,0-.75,2.22,2.22,0,0,0-.3-.74,2.54,2.54,0,0,0-.61-.67L39.45,45a2.51,2.51,0,0,0-.78-.43,2.2,2.2,0,0,0-.79-.12,2,2,0,0,0-.73.2,1.71,1.71,0,0,0-.6.5,1.74,1.74,0,0,0-.36.7,1.9,1.9,0,0,0,0,.75,2,2,0,0,0,.28.74,2.9,2.9,0,0,0,.61.66l.15.12a2.2,2.2,0,0,0,1.58.56A1.78,1.78,0,0,0,40.08,48Z"/>
    <path class="cls-1" d="M39.6,40.49,41,39.23l-1.65-1.81.69-.63,1.65,1.8L43.36,37l.58.64-1.69,1.56,2.61,2.84c.16.18.32.2.48,0L46.59,41l.58.63L45.68,43a.88.88,0,0,1-.67.26.9.9,0,0,1-.64-.32l-2.81-3.06-1.38,1.27Z"/>
    <path class="cls-1" d="M52.26,36.73l-.12.08A1.94,1.94,0,0,1,52,38a2.1,2.1,0,0,1-.73.83,3,3,0,0,1-1,.44,2.52,2.52,0,0,1-1.06,0,2.6,2.6,0,0,1-1-.46,3.88,3.88,0,0,1-.91-1l-.1-.16a3.72,3.72,0,0,1-.54-1.2,3.09,3.09,0,0,1,0-1.13,2.73,2.73,0,0,1,.41-1,3,3,0,0,1,.78-.76,2.44,2.44,0,0,1,1.07-.39,2,2,0,0,1,1.12.26l.12-.07-.52-.79.78-.51L52.92,36a.3.3,0,0,0,.47.12l.25-.16.48.72-.53.35a.89.89,0,0,1-1.29-.27ZM50.82,38a2,2,0,0,0,.56-.56,1.8,1.8,0,0,0,.26-.7,2.19,2.19,0,0,0,0-.8,2.74,2.74,0,0,0-.38-.82L51.14,35a2.59,2.59,0,0,0-.61-.66,2,2,0,0,0-.72-.35,1.77,1.77,0,0,0-.76,0,1.83,1.83,0,0,0-.72.28,2,2,0,0,0-.56.56,1.91,1.91,0,0,0-.26.7,1.94,1.94,0,0,0,0,.79,2.46,2.46,0,0,0,.37.81l.1.17a2.28,2.28,0,0,0,1.33,1A1.84,1.84,0,0,0,50.82,38Z"/>
    <path class="cls-1" d="M59.1,33.39l-.13.06a2,2,0,0,1-.38,1.06,2.3,2.3,0,0,1-.88.69,3,3,0,0,1-1.11.28,2.85,2.85,0,0,1-1.09-.15,2.77,2.77,0,0,1-1-.61,3.29,3.29,0,0,1-.75-1.09l-.08-.17a3.47,3.47,0,0,1-.31-1.28A2.85,2.85,0,0,1,53.58,31a2.73,2.73,0,0,1,.59-.92,3,3,0,0,1,.93-.64,2.14,2.14,0,0,1,1.14-.21,1.92,1.92,0,0,1,1,.44l.13-.06L57,28.79l.86-.38,3,6.76a.88.88,0,0,1,0,.71.86.86,0,0,1-.5.52L56.94,38l-.35-.79,3.22-1.46c.2-.09.25-.24.15-.46Zm-1.74,1a1.92,1.92,0,0,0,.65-.46,1.74,1.74,0,0,0,.39-.67,1.9,1.9,0,0,0,.1-.8,2.42,2.42,0,0,0-.22-.88l-.06-.13a2.32,2.32,0,0,0-.51-.74,2.08,2.08,0,0,0-.67-.45,2,2,0,0,0-.76-.15,1.92,1.92,0,0,0-.78.17,2,2,0,0,0-.65.47,1.7,1.7,0,0,0-.39.66,2.13,2.13,0,0,0-.11.8,2.56,2.56,0,0,0,.23.86l.08.18a2.61,2.61,0,0,0,.51.75,2,2,0,0,0,.66.45,1.75,1.75,0,0,0,.75.13A2,2,0,0,0,57.36,34.38Z"/>
    <path class="cls-1" d="M74.34,28a3.24,3.24,0,0,1-.11,1.34,2.79,2.79,0,0,1-.55,1,2.84,2.84,0,0,1-.88.69,3.3,3.3,0,0,1-1.11.32,3.22,3.22,0,0,1-1.16-.09,2.67,2.67,0,0,1-1-.49,2.81,2.81,0,0,1-.75-.88,3.31,3.31,0,0,1-.38-1.28l0-.15a3.35,3.35,0,0,1,.11-1.32,2.86,2.86,0,0,1,.56-1,2.7,2.7,0,0,1,.88-.69,3,3,0,0,1,1.1-.32,3,3,0,0,1,1.15.08,2.73,2.73,0,0,1,1,.5,3,3,0,0,1,.76.89,3.44,3.44,0,0,1,.38,1.27ZM71.6,30.52a2,2,0,0,0,.77-.24,1.81,1.81,0,0,0,.6-.5,2.17,2.17,0,0,0,.36-.73,2.75,2.75,0,0,0,.06-.92l0-.14a2.16,2.16,0,0,0-.25-.86,1.88,1.88,0,0,0-.5-.64A2,2,0,0,0,71.13,26a2,2,0,0,0-.77.24,2,2,0,0,0-.6.52,2.2,2.2,0,0,0-.42,1.62v.14a2.65,2.65,0,0,0,.25.89,2,2,0,0,0,.5.64,1.85,1.85,0,0,0,.69.37A2.16,2.16,0,0,0,71.6,30.52Z"/>
    <path class="cls-1" d="M77.21,31l-.94-.05L76.58,25l.94.05,0,1h.14a2,2,0,0,1,2-1.08,2.18,2.18,0,0,1,1.61.73,2.75,2.75,0,0,1,.51,2l-.19,3.54-.94-.05.18-3.35a2.05,2.05,0,0,0-.34-1.43,1.48,1.48,0,0,0-1.12-.52,1.63,1.63,0,0,0-1.36.51,2.29,2.29,0,0,0-.57,1.52Z"/>
    <path class="cls-1" d="M84.75,29A2.14,2.14,0,0,0,85,30.48a1.91,1.91,0,0,0,1.29.83,2.43,2.43,0,0,0,.74.06,1.65,1.65,0,0,0,.57-.15,1.55,1.55,0,0,0,.44-.3,2.59,2.59,0,0,0,.32-.42l.81.42A2.63,2.63,0,0,1,88,32a2.91,2.91,0,0,1-1.9.13,3.09,3.09,0,0,1-1.1-.46,2.67,2.67,0,0,1-.76-.81,3,3,0,0,1-.38-1.08,3.38,3.38,0,0,1,0-1.26l.06-.29a3.12,3.12,0,0,1,.46-1.09,2.82,2.82,0,0,1,.8-.78,3,3,0,0,1,1-.4,3,3,0,0,1,1.18,0,2.79,2.79,0,0,1,1.18.53,2.74,2.74,0,0,1,.71.83,2.67,2.67,0,0,1,.32.95,2.54,2.54,0,0,1,0,.88l-.16.75Zm2.48-2.06a2.13,2.13,0,0,0-.75,0,2.05,2.05,0,0,0-.66.22,2,2,0,0,0-.52.44,1.89,1.89,0,0,0-.35.6l3.76.81a1.92,1.92,0,0,0,0-.72,1.61,1.61,0,0,0-.3-.6,1.8,1.8,0,0,0-.5-.45A1.7,1.7,0,0,0,87.23,26.9Z"/>
    <path class="cls-1" d="M91.21,31.71l.37-.94,4.9.24.06-.14-3.78-3.14.37-.94,4.05,3.43-.67,1.7Z"/>
    <path class="cls-1" d="M109,41.63a3,3,0,0,1-.84.5,3,3,0,0,1-.92.18,2.89,2.89,0,0,1-1-.17,3.21,3.21,0,0,1-.93-.55,3.53,3.53,0,0,1-.78-.91,3,3,0,0,1-.38-1.08,2.71,2.71,0,0,1,.1-1.16,3.16,3.16,0,0,1,.63-1.16l.1-.11a3.17,3.17,0,0,1,1-.84,2.81,2.81,0,0,1,1.13-.33,3.11,3.11,0,0,1,2.2.74,3,3,0,0,1,.69.79,2.68,2.68,0,0,1,.35.91,2.48,2.48,0,0,1,0,.94,3,3,0,0,1-.33.91l-.86-.43a2,2,0,0,0,.25-.58,1.72,1.72,0,0,0,0-.64,1.57,1.57,0,0,0-.21-.63,2.2,2.2,0,0,0-.52-.6,1.92,1.92,0,0,0-.73-.39,2,2,0,0,0-.8-.07,1.92,1.92,0,0,0-.79.25,2.23,2.23,0,0,0-.69.58l-.1.11a2.58,2.58,0,0,0-.45.8,1.9,1.9,0,0,0-.08.81,2,2,0,0,0,.24.76,2.37,2.37,0,0,0,.55.64,1.89,1.89,0,0,0,.68.39,1.71,1.71,0,0,0,.66.08,1.67,1.67,0,0,0,.62-.16,2.22,2.22,0,0,0,.52-.34Z"/>
    <path class="cls-1" d="M114.77,46.74a3.38,3.38,0,0,1-1.15.68,3,3,0,0,1-1.16.15,2.77,2.77,0,0,1-1.07-.33,3.15,3.15,0,0,1-.91-.71,3.37,3.37,0,0,1-.6-1,3,3,0,0,1-.18-1.11,2.91,2.91,0,0,1,.29-1.12,3.24,3.24,0,0,1,.83-1.06l.1-.09a3.41,3.41,0,0,1,1.14-.68,3.13,3.13,0,0,1,1.16-.14,2.8,2.8,0,0,1,1.09.32,3.36,3.36,0,0,1,.89.71,3.32,3.32,0,0,1,.6,1,3,3,0,0,1,.18,1.11,3.15,3.15,0,0,1-.29,1.14,3.27,3.27,0,0,1-.82,1Zm-3.62-.8a2.14,2.14,0,0,0,.64.5,1.81,1.81,0,0,0,.75.19,2.09,2.09,0,0,0,.81-.13,2.5,2.5,0,0,0,.78-.48l.11-.1a2.47,2.47,0,0,0,.56-.7,2,2,0,0,0,.23-.78,2.09,2.09,0,0,0-.09-.78,2,2,0,0,0-.4-.7,1.93,1.93,0,0,0-.65-.49,2,2,0,0,0-.76-.19,2.09,2.09,0,0,0-.81.13,2.45,2.45,0,0,0-.76.47l-.11.09a2.91,2.91,0,0,0-.58.72,2.11,2.11,0,0,0-.23.78,1.82,1.82,0,0,0,.1.77A2,2,0,0,0,111.15,45.94Z"/>
    <path class="cls-1" d="M116.78,53.4l-.08-.12a2,2,0,0,1-.6-.06,2.18,2.18,0,0,1-.54-.22,2.55,2.55,0,0,1-.81-.79,2.93,2.93,0,0,1-.42-1.05,2.62,2.62,0,0,1,0-1.08,2.76,2.76,0,0,1,.48-1,3.51,3.51,0,0,1,1-.88l.16-.11a3.48,3.48,0,0,1,1.22-.49,2.86,2.86,0,0,1,1.13,0,2.62,2.62,0,0,1,1,.45,2.77,2.77,0,0,1,.75.81,2.55,2.55,0,0,1,.39,1.11,1.86,1.86,0,0,1-.27,1.14l.08.13,2.86-1.81.5.79-7.1,4.49-.5-.8Zm-1.23-1.58a2,2,0,0,0,.55.57,1.8,1.8,0,0,0,.71.3,2.21,2.21,0,0,0,.81,0,2.51,2.51,0,0,0,.84-.35l.12-.07a2.63,2.63,0,0,0,.67-.61,2.14,2.14,0,0,0,.35-.73,1.82,1.82,0,0,0,0-.77,1.92,1.92,0,0,0-.83-1.32,1.68,1.68,0,0,0-.71-.31,2.15,2.15,0,0,0-.8,0,2.34,2.34,0,0,0-.82.35l-.17.1a2.68,2.68,0,0,0-.68.6,2.18,2.18,0,0,0-.35.72,2,2,0,0,0,0,.77A2.36,2.36,0,0,0,115.55,51.82Z"/>
    <path class="cls-1" d="M120,55.79a2.09,2.09,0,0,0-1.1,1.07A1.94,1.94,0,0,0,119,58.4a2.7,2.7,0,0,0,.38.63,1.62,1.62,0,0,0,.45.39,1.58,1.58,0,0,0,.5.18,2.26,2.26,0,0,0,.52,0l.13.92a2.66,2.66,0,0,1-1.61-.33,2.94,2.94,0,0,1-1.19-1.48,2.91,2.91,0,0,1-.26-1.16,2.66,2.66,0,0,1,.22-1.09,2.87,2.87,0,0,1,.66-.94,3.47,3.47,0,0,1,1.06-.69l.27-.11a2.94,2.94,0,0,1,1.15-.25,2.69,2.69,0,0,1,1.1.2,3,3,0,0,1,.93.62,3.13,3.13,0,0,1,.91,2.25,3,3,0,0,1-.27,1.06,2.71,2.71,0,0,1-.6.81,2.55,2.55,0,0,1-.73.48l-.71.31Zm3.12.83a2.07,2.07,0,0,0-.4-.62,1.91,1.91,0,0,0-.57-.42,1.61,1.61,0,0,0-.65-.17,2.1,2.1,0,0,0-.7.06L122.34,59a1.84,1.84,0,0,0,.57-.45,1.79,1.79,0,0,0,.32-.59,2.19,2.19,0,0,0,.08-.68A2.26,2.26,0,0,0,123.15,56.62Z"/>
    <path class="cls-1" d="M124.5,61.92l.5,2,2-.5.21.84-2,.5.5,2-.84.21-.5-2-2,.5-.21-.84,2-.5-.5-2Z"/>
    <path class="cls-1" d="M122.86,74.5v-.14a1.72,1.72,0,0,1-.51-.33,1.78,1.78,0,0,1-.37-.45,2.08,2.08,0,0,1-.25-.52,2.82,2.82,0,0,1-.11-.55,3,3,0,0,1,.11-1.13,2.82,2.82,0,0,1,.51-.95,2.63,2.63,0,0,1,.9-.69,3.54,3.54,0,0,1,1.28-.33l.19,0a3.42,3.42,0,0,1,1.3.12,2.86,2.86,0,0,1,1,.53,2.63,2.63,0,0,1,.67.85,3,3,0,0,1,.29,1.07,2.44,2.44,0,0,1-.17,1.17,1.8,1.8,0,0,1-.76.88v.15l3.37-.28.08.93-8.37.7-.08-.93Zm-.36-2a2.15,2.15,0,0,0,.22.77,2,2,0,0,0,.5.59,2.21,2.21,0,0,0,.72.36,2.27,2.27,0,0,0,.91.08H125a2.24,2.24,0,0,0,.87-.23,2.07,2.07,0,0,0,.65-.48,2,2,0,0,0,.49-1.45,2,2,0,0,0-.22-.77,1.83,1.83,0,0,0-.5-.6,1.77,1.77,0,0,0-.71-.36,2.37,2.37,0,0,0-.89-.08l-.19,0a2.64,2.64,0,0,0-.89.22,2,2,0,0,0-.64.48,1.79,1.79,0,0,0-.37.66A2.12,2.12,0,0,0,122.5,72.53Z"/>
    <path class="cls-1" d="M124.65,78.11a2.11,2.11,0,0,0-1.47.45,1.89,1.89,0,0,0-.64,1.4,2.42,2.42,0,0,0,0,.73,1.77,1.77,0,0,0,.22.56,1.34,1.34,0,0,0,.37.38,2,2,0,0,0,.45.26l-.3.87a2.6,2.6,0,0,1-1.28-1,3.32,3.32,0,0,1-.08-3,2.61,2.61,0,0,1,.7-.87,2.87,2.87,0,0,1,1-.53,3.27,3.27,0,0,1,1.26-.12l.29,0a3.05,3.05,0,0,1,1.14.3,2.76,2.76,0,0,1,.88.69,2.91,2.91,0,0,1,.55,1,3,3,0,0,1,.13,1.17,2.7,2.7,0,0,1-.36,1.25,2.92,2.92,0,0,1-.73.82,2.51,2.51,0,0,1-.9.44,2.77,2.77,0,0,1-.87.1l-.77-.06ZM127,80.29a2.31,2.31,0,0,0-.07-.75,1.9,1.9,0,0,0-.31-.62,2,2,0,0,0-.5-.46,2.16,2.16,0,0,0-.65-.26L125.22,82a1.8,1.8,0,0,0,.71-.13,1.85,1.85,0,0,0,.56-.38,2,2,0,0,0,.38-.56A2.28,2.28,0,0,0,127,80.29Z"/>
    <path class="cls-1" d="M125.34,86.68a.73.73,0,0,0-.73.2,3.37,3.37,0,0,0-.6,1.23,3.07,3.07,0,0,1-.85,1.44,1.43,1.43,0,0,1-1.3.25l-.07,0a1.53,1.53,0,0,1-.71-.35,1.61,1.61,0,0,1-.46-.6,2,2,0,0,1-.18-.81,3.15,3.15,0,0,1,.09-1A3.4,3.4,0,0,1,121,86a2.33,2.33,0,0,1,.67-.69,2,2,0,0,1,.79-.33,2.21,2.21,0,0,1,.81,0v.91a1.57,1.57,0,0,0-1.19.26,1.81,1.81,0,0,0-.69,1.12,1.91,1.91,0,0,0,0,1.09.82.82,0,0,0,.61.56.75.75,0,0,0,.8-.22,3.23,3.23,0,0,0,.56-1.18,3.07,3.07,0,0,1,.83-1.43,1.39,1.39,0,0,1,1.29-.27l.07,0a1.43,1.43,0,0,1,.67.35,1.53,1.53,0,0,1,.41.59,2.28,2.28,0,0,1,.16.75,3.27,3.27,0,0,1-.08.81,3,3,0,0,1-.4,1,2.37,2.37,0,0,1-.58.63,1.82,1.82,0,0,1-.68.31,2.17,2.17,0,0,1-.71,0v-.91a1.23,1.23,0,0,0,1-.25,1.62,1.62,0,0,0,.56-.94,2.12,2.12,0,0,0,.06-.49,1.56,1.56,0,0,0-.06-.44,1.05,1.05,0,0,0-.2-.34A.67.67,0,0,0,125.34,86.68Z"/>
    <path class="cls-1" d="M120.24,91.92l-.8,1.93,3.91,1.61.71-1.72.8.33-1.07,2.59-4.7-2-.75,1.8-.8-.33,1.91-4.59Zm5.69,4.2a.8.8,0,0,1,.46.46.88.88,0,0,1,0,.64.85.85,0,0,1-.46.45.79.79,0,0,1-.64,0,.81.81,0,0,1-.46-.45.88.88,0,0,1,0-.64.8.8,0,0,1,.46-.46A.79.79,0,0,1,125.93,96.12Z"/>
    <path class="cls-1" d="M115,102.41l.08-.13a1.88,1.88,0,0,1-.28-1.09,2.32,2.32,0,0,1,.34-1.07,3.15,3.15,0,0,1,.77-.85,2.68,2.68,0,0,1,1-.48,2.56,2.56,0,0,1,1.14,0,3.15,3.15,0,0,1,1.23.48l.17.1a3.32,3.32,0,0,1,1,.88,2.91,2.91,0,0,1,.48,1.05,2.72,2.72,0,0,1,0,1.1,3,3,0,0,1-.4,1,2.27,2.27,0,0,1-.84.82,2,2,0,0,1-1.1.22l-.07.12.79.49-.49.8-6.31-3.9a.92.92,0,0,1-.44-.57.89.89,0,0,1,.13-.7l2-3.3.74.45-1.86,3c-.11.19-.07.34.14.47Zm.89-1.8a2,2,0,0,0-.28.74,1.82,1.82,0,0,0,0,.77,2,2,0,0,0,.36.73,2.35,2.35,0,0,0,.68.6l.12.08a2.77,2.77,0,0,0,.83.33,2.2,2.2,0,0,0,.81,0,2.1,2.1,0,0,0,.72-.31,2,2,0,0,0,.55-.57,2.14,2.14,0,0,0,.28-.75,2,2,0,0,0,0-.78,2.07,2.07,0,0,0-.36-.71,2.41,2.41,0,0,0-.67-.59l-.16-.1a2.64,2.64,0,0,0-.85-.35,2.1,2.1,0,0,0-.79,0,1.92,1.92,0,0,0-.7.31A2.09,2.09,0,0,0,115.87,100.61Z"/>
    <path class="cls-1" d="M112,104.87l.61-.71,4.51,3.89-.61.71-.77-.66-.09.11a2,2,0,0,1-.36,2.22,2.18,2.18,0,0,1-1.56.83,2.69,2.69,0,0,1-1.86-.8l-2.69-2.32.61-.71,2.54,2.2a2,2,0,0,0,1.34.6,1.47,1.47,0,0,0,1.1-.56,1.65,1.65,0,0,0,.43-1.39,2.37,2.37,0,0,0-.86-1.39Z"/>
    <path class="cls-1" d="M103.28,118.32a1.42,1.42,0,0,1,.19.52,1.68,1.68,0,0,1,0,.55,1.57,1.57,0,0,1-.23.49,1.35,1.35,0,0,1-.41.38,1.4,1.4,0,0,1-.53.19,1.64,1.64,0,0,1-.54,0,1.47,1.47,0,0,1-.49-.23,1.35,1.35,0,0,1-.38-.41,1.47,1.47,0,0,1-.19-.53,1.46,1.46,0,0,1,.26-1,1.36,1.36,0,0,1,.41-.38,1.4,1.4,0,0,1,.52-.18,1.68,1.68,0,0,1,.55,0,1.37,1.37,0,0,1,.49.23A1.24,1.24,0,0,1,103.28,118.32Z"/>
    <path class="cls-1" d="M88.86,124.83a.72.72,0,0,0-.5-.56,3,3,0,0,0-1.37,0,3,3,0,0,1-1.66-.14,1.4,1.4,0,0,1-.8-1l0-.07a1.8,1.8,0,0,1,0-.8,1.93,1.93,0,0,1,.34-.67,2.29,2.29,0,0,1,.65-.52,3,3,0,0,1,.9-.33,3.22,3.22,0,0,1,1.21-.08,2.32,2.32,0,0,1,.91.29,2.07,2.07,0,0,1,.64.57,2.16,2.16,0,0,1,.36.73l-.82.4a1.61,1.61,0,0,0-.75-.95,1.8,1.8,0,0,0-1.31-.13,2,2,0,0,0-1,.48.81.81,0,0,0-.23.8.76.76,0,0,0,.54.62,3.39,3.39,0,0,0,1.31,0,3.06,3.06,0,0,1,1.65.12,1.42,1.42,0,0,1,.81,1v.07a1.5,1.5,0,0,1,0,.76,1.66,1.66,0,0,1-.36.63,2.36,2.36,0,0,1-.6.47,3.25,3.25,0,0,1-1.8.35,2.47,2.47,0,0,1-.82-.25,1.7,1.7,0,0,1-.58-.48,2.23,2.23,0,0,1-.36-.61l.82-.4a1.29,1.29,0,0,0,.65.77,1.62,1.62,0,0,0,1.1.09,2.27,2.27,0,0,0,.46-.16,1.41,1.41,0,0,0,.37-.25,1,1,0,0,0,.22-.33A.64.64,0,0,0,88.86,124.83Z"/>
    <path class="cls-1" d="M81.88,122.56l-2.08.14.26,4.21,1.87-.12,0,.87-2.8.17-.32-5.08-1.94.13,0-.87,5-.31Zm-1.27,7a.77.77,0,0,1-.21.61.79.79,0,0,1-.58.28.75.75,0,0,1-.6-.21.8.8,0,0,1-.29-.57.83.83,0,0,1,.21-.61.79.79,0,0,1,.58-.28.81.81,0,0,1,.61.2A.82.82,0,0,1,80.61,129.52Z"/>
    <path class="cls-1" d="M73.79,121.9l.93.09-.57,5.92-.93-.08.1-1h-.14a2,2,0,0,1-2,1,2.15,2.15,0,0,1-1.57-.8,2.66,2.66,0,0,1-.43-2l.34-3.54.93.09-.32,3.34a2.08,2.08,0,0,0,.28,1.44,1.48,1.48,0,0,0,1.09.58,1.65,1.65,0,0,0,1.39-.46,2.31,2.31,0,0,0,.63-1.5Z"/>
    <path class="cls-1" d="M61.62,121.79a3.16,3.16,0,0,1,.55-.8,2.6,2.6,0,0,1,.76-.55,2.56,2.56,0,0,1,.93-.25,3.36,3.36,0,0,1,1.07.11,3.43,3.43,0,0,1,1.1.49,2.84,2.84,0,0,1,1.2,1.92,3.31,3.31,0,0,1-.09,1.31l0,.14a3.13,3.13,0,0,1-.56,1.19,2.87,2.87,0,0,1-.89.78,3,3,0,0,1-1.1.34,3.07,3.07,0,0,1-1.2-.09,3.14,3.14,0,0,1-1-.42,2.8,2.8,0,0,1-.7-.67,2.59,2.59,0,0,1-.39-.86,2.8,2.8,0,0,1-.08-1l1,0a1.9,1.9,0,0,0,0,.63,1.77,1.77,0,0,0,.23.59,1.81,1.81,0,0,0,.47.49,2,2,0,0,0,.72.32,2.08,2.08,0,0,0,.82,0,1.89,1.89,0,0,0,.76-.28,2.19,2.19,0,0,0,.62-.56,2.47,2.47,0,0,0,.38-.82l0-.14a2.25,2.25,0,0,0,.07-.92,1.85,1.85,0,0,0-.26-.77,2,2,0,0,0-.55-.58,2.12,2.12,0,0,0-.76-.35,1.79,1.79,0,0,0-.78-.06,1.85,1.85,0,0,0-.64.2,1.91,1.91,0,0,0-.49.4,2,2,0,0,0-.33.54Z"/>
    <path class="cls-1" d="M58.85,121.35a2.07,2.07,0,0,0,.07-1.52,1.89,1.89,0,0,0-1.1-1.08,2.68,2.68,0,0,0-.71-.21,1.9,1.9,0,0,0-.59,0,1.43,1.43,0,0,0-.49.21,2.57,2.57,0,0,0-.39.35l-.72-.58a2.64,2.64,0,0,1,1.4-.86,3.37,3.37,0,0,1,2.86.93,2.57,2.57,0,0,1,.59.95,2.82,2.82,0,0,1,.16,1.13,3.38,3.38,0,0,1-.31,1.23l-.11.26a3.1,3.1,0,0,1-.67,1,2.73,2.73,0,0,1-1,.6,3,3,0,0,1-1.09.19,3,3,0,0,1-1.15-.27,2.73,2.73,0,0,1-1-.75,3,3,0,0,1-.54-1,2.58,2.58,0,0,1-.11-1,2.72,2.72,0,0,1,.2-.86l.31-.7ZM56,122.88a1.91,1.91,0,0,0,.72.18,1.75,1.75,0,0,0,.69-.08,1.94,1.94,0,0,0,1.06-.84L55,120.59a1.62,1.62,0,0,0-.11.71A1.61,1.61,0,0,0,55,122a1.94,1.94,0,0,0,.4.55A1.88,1.88,0,0,0,56,122.88Z"/>
    <path class="cls-1" d="M43.31,109.08l.63-.7,4.23,3.81-1,1.07a2.28,2.28,0,0,1-.81.61,2,2,0,0,1-.9.18,2.92,2.92,0,0,1-1-.19,7,7,0,0,1-1.09-.51,3.36,3.36,0,0,0-1.6-.52,1.45,1.45,0,0,0-1.08.5l0,0a2.06,2.06,0,0,0-.35.55,1.69,1.69,0,0,0-.12.64,1.58,1.58,0,0,0,.16.69,2.14,2.14,0,0,0,.53.67,1.78,1.78,0,0,0,1.44.54,2.16,2.16,0,0,0,1.39-.77l.35-.39.75.67-.4.45a3.44,3.44,0,0,1-.88.69,2.79,2.79,0,0,1-1,.32,2.57,2.57,0,0,1-1.12-.14,3.11,3.11,0,0,1-1.11-.67,3.4,3.4,0,0,1-.79-1,2.79,2.79,0,0,1-.28-1,2.46,2.46,0,0,1,.16-1,2.5,2.5,0,0,1,.5-.81l.14-.16a2.4,2.4,0,0,1,1.54-.82,3.46,3.46,0,0,1,2.08.57,4.38,4.38,0,0,0,1.7.63,1.42,1.42,0,0,0,1.21-.53l.24-.27Z"/>
    <path class="cls-1" d="M38.93,110.55a3.76,3.76,0,0,1-2.46,1,2.69,2.69,0,0,1-2.07-1.12,2.73,2.73,0,0,1-.66-2.26A3.71,3.71,0,0,1,35.22,106l1.45-1.18a3.74,3.74,0,0,1,2.48-1,2.79,2.79,0,0,1,2.05,1.14,2.76,2.76,0,0,1,.68,2.24,3.74,3.74,0,0,1-1.5,2.21Zm1.56-5.06a1.67,1.67,0,0,0-1.45-.7,3.21,3.21,0,0,0-1.79.82L35.9,106.7a4.75,4.75,0,0,0-.74.75,2.4,2.4,0,0,0-.4.8,1.59,1.59,0,0,0,0,.81,1.77,1.77,0,0,0,.38.78,1.84,1.84,0,0,0,.69.54,1.76,1.76,0,0,0,.79.13,2.43,2.43,0,0,0,.87-.22,4.73,4.73,0,0,0,.89-.57l1.34-1.09a3.23,3.23,0,0,0,1.19-1.58A1.73,1.73,0,0,0,40.49,105.49Zm-2.21,2.77a.71.71,0,0,1-.56.16.72.72,0,0,1-.52-.27.76.76,0,0,1-.16-.57.7.7,0,0,1,.28-.51.71.71,0,0,1,.56-.16.74.74,0,0,1,.52.27.76.76,0,0,1,.16.57A.73.73,0,0,1,38.28,108.26Z"/>
    <path class="cls-1" d="M34.76,97.06l.81-.46,2.83,4.93-1.25.72a2.39,2.39,0,0,1-1,.33,2.17,2.17,0,0,1-.91-.11,3.19,3.19,0,0,1-.87-.49,9,9,0,0,1-.87-.81,3.2,3.2,0,0,0-1.36-1,1.4,1.4,0,0,0-1.18.13l-.06,0a1.64,1.64,0,0,0-.5.41,1.46,1.46,0,0,0-.32.57,1.61,1.61,0,0,0-.06.7,2,2,0,0,0,.29.81,1.78,1.78,0,0,0,1.2,1,2.16,2.16,0,0,0,1.56-.3l.45-.26.51.87-.52.3a3.21,3.21,0,0,1-1.06.38,2.65,2.65,0,0,1-2.11-.5,3.13,3.13,0,0,1-.84-1,3.17,3.17,0,0,1-.44-1.22,2.54,2.54,0,0,1,.06-1.07,2.26,2.26,0,0,1,.45-.87,2.39,2.39,0,0,1,.73-.62l.19-.11a2.39,2.39,0,0,1,1.72-.3A3.51,3.51,0,0,1,34,100.3a4.31,4.31,0,0,0,1.42,1.13,1.41,1.41,0,0,0,1.31-.13l.32-.18Z"/>
    <path class="cls-1" d="M30.14,97.1a3.76,3.76,0,0,1-2.65.17A3.07,3.07,0,0,1,26,93.2a3.71,3.71,0,0,1,2.09-1.62l1.75-.66a3.66,3.66,0,0,1,2.67-.17,2.76,2.76,0,0,1,1.59,1.72A2.72,2.72,0,0,1,34,94.81a3.68,3.68,0,0,1-2.11,1.63Zm3.06-4.31a1.66,1.66,0,0,0-1.14-1.12,3.15,3.15,0,0,0-2,.22l-1.61.61a3.77,3.77,0,0,0-.94.48,2.56,2.56,0,0,0-.64.63,1.75,1.75,0,0,0-.28.76,2,2,0,0,0,.6,1.59,1.69,1.69,0,0,0,.71.38,2.37,2.37,0,0,0,.89,0,3.8,3.8,0,0,0,1-.26l1.62-.61a3.13,3.13,0,0,0,1.61-1.13A1.66,1.66,0,0,0,33.2,92.79Zm-3,1.94a.78.78,0,0,1-.58,0,.75.75,0,0,1-.41-.43.78.78,0,0,1,.45-1,.8.8,0,0,1,.59,0,.76.76,0,0,1,.38,1A.72.72,0,0,1,30.24,94.73Z"/>
    <path class="cls-1" d="M25.94,89.81a2.93,2.93,0,0,1-1.18,0,3,3,0,0,1-1.05-.44,2.8,2.8,0,0,1-.81-.8,2.85,2.85,0,0,1-.46-1.09,2.76,2.76,0,0,1,0-1.18,3,3,0,0,1,.43-1.06,3.24,3.24,0,0,1,.8-.81A3,3,0,0,1,24.76,84a2.93,2.93,0,0,1,1.18,0,3,3,0,0,1,1.06.44,3.08,3.08,0,0,1,.81.8,2.79,2.79,0,0,1,.46,1.09,2.93,2.93,0,0,1,0,1.18,2.88,2.88,0,0,1-.43,1,3,3,0,0,1-.81.82A3,3,0,0,1,25.94,89.81Zm-.11-.57a2.43,2.43,0,0,0,.89-.37,2.47,2.47,0,0,0,.64-.65,2.36,2.36,0,0,0,.35-.85,2.58,2.58,0,0,0,0-1,2.39,2.39,0,0,0-.37-.88,2.27,2.27,0,0,0-.66-.65,2.41,2.41,0,0,0-.84-.35,2.39,2.39,0,0,0-1,0,2.27,2.27,0,0,0-.89.37,2.37,2.37,0,0,0-.65.65,2.45,2.45,0,0,0-.34.85,2.22,2.22,0,0,0,0,1,2.39,2.39,0,0,0,.37.88,2.51,2.51,0,0,0,.65.65,2.55,2.55,0,0,0,.85.35A2.39,2.39,0,0,0,25.83,89.24Zm.72-2.59a.52.52,0,0,0-.25-.39.66.66,0,0,0-.46-.07l-.22,0-.12-.63.14,0a1.33,1.33,0,0,1,.95.13,1.15,1.15,0,0,1,.53.83,1.23,1.23,0,0,1-.16,1,1.31,1.31,0,0,1-.83.51l-1.06.21a1.28,1.28,0,0,1-.95-.15,1.2,1.2,0,0,1-.53-.83,1.18,1.18,0,0,1,.16-1,1.31,1.31,0,0,1,.83-.48l.14,0,.13.63-.21,0a.65.65,0,0,0-.4.24.56.56,0,0,0-.09.46.61.61,0,0,0,.26.4.59.59,0,0,0,.47.08l1.19-.24a.62.62,0,0,0,.4-.25A.59.59,0,0,0,26.55,86.65Z"/>
  </g>
</svg>
