<svg id="Livello_1" data-name="Livello 1" xmlns="http://www.w3.org/2000/svg" viewBox="20 20 113 113">
  <defs>
    <style>
      .cls-1 {
        fill: rgba(95,6,48);
      }

      .cls-2 {
        fill: white;
      }
    </style>
  </defs>
  <title>microavatag</title>
  <circle class="cls-1" cx="76.46" cy="76.46" r="39.94"/>
  <circle class="cls-2" cx="61.39" cy="71.17" r="8.36"/>
  <path class="cls-1" d="M61.4,76a4.87,4.87,0,1,1,4.87-4.87A4.87,4.87,0,0,1,61.4,76Zm0-8.66a3.79,3.79,0,1,0,3.78,3.79,3.79,3.79,0,0,0-3.78-3.79Z"/>
  <circle class="cls-2" cx="91.54" cy="71.17" r="8.36"/>
  <rect class="cls-1" x="91" y="67.39" width="1.08" height="8.09"/>
  <rect class="cls-2" x="75.92" y="61.66" width="1.08" height="16.92"/>
  <polygon class="cls-2" points="68.59 86.92 63.92 82.25 64.69 81.49 68.59 85.39 72.49 81.49 73.25 82.25 68.59 86.92"/>
  <polygon class="cls-2" points="84.34 86.92 79.68 82.25 80.45 81.49 84.34 85.39 88.24 81.49 89.01 82.25 84.34 86.92"/>
  <path class="cls-2" d="M76.46,94.57a8.42,8.42,0,0,1-8.41-8.42h1.08a7.34,7.34,0,0,0,14.68,0h1.08A8.44,8.44,0,0,1,76.46,94.57Z"/>
  <path class="cls-2" d="M77,62.25H75.93a1.52,1.52,0,0,0-1.51-1.52h-6a2.6,2.6,0,0,1-2.6-2.59v-.39H67v.39a1.52,1.52,0,0,0,1.52,1.51h6A2.59,2.59,0,0,1,77,62.25Z"/>
  <path class="cls-2" d="M77,62.25H75.93a2.59,2.59,0,0,1,2.59-2.6h6A1.51,1.51,0,0,0,86,58.14h0v-.39h1.08v.39a2.59,2.59,0,0,1-2.59,2.59h-6A1.52,1.52,0,0,0,77,62.25Z"/>
</svg>
